<?xml version="1.0" encoding="UTF-8" standalone="no"?>
<!DOCTYPE svg PUBLIC "-//W3C//DTD SVG 1.1//EN"
 "http://www.w3.org/Graphics/SVG/1.1/DTD/svg11.dtd">
<!-- Generated by graphviz version 2.40.1 (20161225.0304)
 -->
<!-- Title: dependencies Pages: 1 -->
<svg width="3105pt" height="284pt"
 viewBox="0.00 0.00 3105.00 284.00" xmlns="http://www.w3.org/2000/svg" xmlns:xlink="http://www.w3.org/1999/xlink">
<g id="graph0" class="graph" transform="scale(1 1) rotate(0) translate(4 280)">
<title>dependencies</title>
<polygon fill="#ffffff" stroke="transparent" points="-4,4 -4,-280 3101,-280 3101,4 -4,4"/>
<text text-anchor="start" x="1527.5091" y="-42.4" font-family="sans-serif" font-weight="bold" font-size="14.00" fill="#000000">Legend</text>
<polygon fill="#ffffb3" stroke="transparent" points="1314.5,-10 1314.5,-30 1334.5,-30 1334.5,-10 1314.5,-10"/>
<text text-anchor="start" x="1338.129" y="-15.4" font-family="sans-serif" font-size="14.00" fill="#000000"> &#160;Declarations</text>
<polygon fill="#8dd3c7" stroke="transparent" points="1427.5,-10 1427.5,-30 1447.5,-30 1447.5,-10 1427.5,-10"/>
<text text-anchor="start" x="1451.2251" y="-15.4" font-family="sans-serif" font-size="14.00" fill="#000000"> &#160;Module</text>
<polygon fill="#80b1d3" stroke="transparent" points="1513.5,-10 1513.5,-30 1533.5,-30 1533.5,-10 1513.5,-10"/>
<text text-anchor="start" x="1537.2812" y="-15.4" font-family="sans-serif" font-size="14.00" fill="#000000"> &#160;Bootstrap</text>
<polygon fill="#fdb462" stroke="transparent" points="1610.5,-10 1610.5,-30 1630.5,-30 1630.5,-10 1610.5,-10"/>
<text text-anchor="start" x="1634.1732" y="-15.4" font-family="sans-serif" font-size="14.00" fill="#000000"> &#160;Providers</text>
<polygon fill="#fb8072" stroke="transparent" points="1706.5,-10 1706.5,-30 1726.5,-30 1726.5,-10 1706.5,-10"/>
<text text-anchor="start" x="1730.2258" y="-15.4" font-family="sans-serif" font-size="14.00" fill="#000000"> &#160;Exports</text>
<g id="clust1" class="cluster">
<title>cluster_AppModule</title>
<polygon fill="none" stroke="#000000" stroke-dasharray="1,5" points="8,-70 8,-268 3089,-268 3089,-70 8,-70"/>
</g>
<g id="clust2" class="cluster">
<title>cluster_AppModule_declarations</title>
<polygon fill="none" stroke="#000000" points="2416,-78 2416,-130 3081,-130 3081,-78 2416,-78"/>
</g>
<g id="clust8" class="cluster">
<title>cluster_AppModule_imports</title>
<polygon fill="none" stroke="#000000" points="915,-78 915,-130 2408,-130 2408,-78 915,-78"/>
</g>
<g id="clust9" class="cluster">
<title>cluster_AppModule_exports</title>
<polygon fill="none" stroke="#000000" points="1520,-208 1520,-260 1652,-260 1652,-208 1520,-208"/>
</g>
<g id="clust10" class="cluster">
<title>cluster_AppModule_bootstrap</title>
<polygon fill="none" stroke="#000000" points="1660,-208 1660,-260 1784,-260 1784,-208 1660,-208"/>
</g>
<g id="clust11" class="cluster">
<title>cluster_AppModule_providers</title>
<polygon fill="none" stroke="#000000" points="16,-78 16,-130 907,-130 907,-78 16,-78"/>
</g>
<!-- AppComponent -->
<g id="node1" class="node">
<title>AppComponent</title>
<polygon fill="#ffffb3" stroke="#000000" points="3072.9399,-122 2967.0601,-122 2967.0601,-86 3072.9399,-86 3072.9399,-122"/>
<text text-anchor="middle" x="3020" y="-99.8" font-family="Times,serif" font-size="14.00" fill="#000000">AppComponent</text>
</g>
<!-- AppModule -->
<g id="node6" class="node">
<title>AppModule</title>
<polygon fill="#8dd3c7" stroke="#000000" points="1695.6571,-187 1692.6571,-191 1671.6571,-191 1668.6571,-187 1612.3429,-187 1612.3429,-151 1695.6571,-151 1695.6571,-187"/>
<text text-anchor="middle" x="1654" y="-164.8" font-family="Times,serif" font-size="14.00" fill="#000000">AppModule</text>
</g>
<!-- AppComponent&#45;&gt;AppModule -->
<g id="edge1" class="edge">
<title>AppComponent&#45;&gt;AppModule</title>
<path fill="none" stroke="#000000" d="M3020,-122.1532C3020,-145.7566 3020,-184 3020,-184 3020,-184 1706.0028,-184 1706.0028,-184"/>
<polygon fill="#000000" stroke="#000000" points="1706.0028,-180.5001 1696.0028,-184 1706.0027,-187.5001 1706.0028,-180.5001"/>
</g>
<!-- LoginComponent -->
<g id="node2" class="node">
<title>LoginComponent</title>
<polygon fill="#ffffb3" stroke="#000000" points="2949.2758,-122 2834.7242,-122 2834.7242,-86 2949.2758,-86 2949.2758,-122"/>
<text text-anchor="middle" x="2892" y="-99.8" font-family="Times,serif" font-size="14.00" fill="#000000">LoginComponent</text>
</g>
<!-- LoginComponent&#45;&gt;AppModule -->
<g id="edge2" class="edge">
<title>LoginComponent&#45;&gt;AppModule</title>
<path fill="none" stroke="#000000" d="M2892,-122.2479C2892,-145.0179 2892,-181 2892,-181 2892,-181 1705.8999,-181 1705.8999,-181"/>
<polygon fill="#000000" stroke="#000000" points="1705.8999,-177.5001 1695.8999,-181 1705.8998,-184.5001 1705.8999,-177.5001"/>
</g>
<!-- AccueilComponent -->
<g id="node3" class="node">
<title>AccueilComponent</title>
<polygon fill="#ffffb3" stroke="#000000" points="2816.3641,-122 2691.6359,-122 2691.6359,-86 2816.3641,-86 2816.3641,-122"/>
<text text-anchor="middle" x="2754" y="-99.8" font-family="Times,serif" font-size="14.00" fill="#000000">AccueilComponent</text>
</g>
<!-- AccueilComponent&#45;&gt;AppModule -->
<g id="edge3" class="edge">
<title>AccueilComponent&#45;&gt;AppModule</title>
<path fill="none" stroke="#000000" d="M2754,-122.2921C2754,-144.2057 2754,-178 2754,-178 2754,-178 1705.7781,-178 1705.7781,-178"/>
<polygon fill="#000000" stroke="#000000" points="1705.7781,-174.5001 1695.7781,-178 1705.7781,-181.5001 1705.7781,-174.5001"/>
</g>
<!-- FooterComponent -->
<g id="node4" class="node">
<title>FooterComponent</title>
<polygon fill="#ffffb3" stroke="#000000" points="2673.8809,-122 2556.1191,-122 2556.1191,-86 2673.8809,-86 2673.8809,-122"/>
<text text-anchor="middle" x="2615" y="-99.8" font-family="Times,serif" font-size="14.00" fill="#000000">FooterComponent</text>
</g>
<!-- FooterComponent&#45;&gt;AppModule -->
<g id="edge4" class="edge">
<title>FooterComponent&#45;&gt;AppModule</title>
<path fill="none" stroke="#000000" d="M2615,-122.0267C2615,-142.7672 2615,-174 2615,-174 2615,-174 1705.9109,-174 1705.9109,-174"/>
<polygon fill="#000000" stroke="#000000" points="1705.9109,-170.5001 1695.9109,-174 1705.9109,-177.5001 1705.9109,-170.5001"/>
</g>
<!-- MenuComponent -->
<g id="node5" class="node">
<title>MenuComponent</title>
<polygon fill="#ffffb3" stroke="#000000" points="2537.9916,-122 2424.0084,-122 2424.0084,-86 2537.9916,-86 2537.9916,-122"/>
<text text-anchor="middle" x="2481" y="-99.8" font-family="Times,serif" font-size="14.00" fill="#000000">MenuComponent</text>
</g>
<!-- MenuComponent&#45;&gt;AppModule -->
<g id="edge5" class="edge">
<title>MenuComponent&#45;&gt;AppModule</title>
<path fill="none" stroke="#000000" d="M2481,-122.308C2481,-142.1455 2481,-171 2481,-171 2481,-171 1705.8625,-171 1705.8625,-171"/>
<polygon fill="#000000" stroke="#000000" points="1705.8625,-167.5001 1695.8625,-171 1705.8624,-174.5001 1705.8625,-167.5001"/>
</g>
<!-- TranslateModule  -->
<g id="node17" class="node">
<title>TranslateModule </title>
<polygon fill="#fb8072" stroke="#000000" points="1643.6327,-252 1528.3673,-252 1528.3673,-216 1643.6327,-216 1643.6327,-252"/>
<text text-anchor="middle" x="1586" y="-229.8" font-family="Times,serif" font-size="14.00" fill="#000000">TranslateModule </text>
</g>
<!-- AppModule&#45;&gt;TranslateModule  -->
<g id="edge16" class="edge">
<title>AppModule&#45;&gt;TranslateModule </title>
<path fill="none" stroke="#000000" stroke-dasharray="5,2" d="M1627.8691,-187.1061C1627.8691,-187.1061 1627.8691,-205.991 1627.8691,-205.991"/>
<polygon fill="#000000" stroke="#000000" points="1624.3691,-205.9909 1627.8691,-215.991 1631.3691,-205.991 1624.3691,-205.9909"/>
</g>
<!-- AppComponent  -->
<g id="node18" class="node">
<title>AppComponent </title>
<polygon fill="#80b1d3" stroke="#000000" points="1776.439,-252 1667.561,-252 1667.561,-216 1776.439,-216 1776.439,-252"/>
<text text-anchor="middle" x="1722" y="-229.8" font-family="Times,serif" font-size="14.00" fill="#000000">AppComponent </text>
</g>
<!-- AppModule&#45;&gt;AppComponent  -->
<g id="edge17" class="edge">
<title>AppModule&#45;&gt;AppComponent </title>
<path fill="none" stroke="#000000" stroke-dasharray="1,5" d="M1681.6794,-187.1061C1681.6794,-187.1061 1681.6794,-205.991 1681.6794,-205.991"/>
<polygon fill="#000000" stroke="#000000" points="1678.1794,-205.9909 1681.6794,-215.991 1685.1794,-205.991 1678.1794,-205.9909"/>
</g>
<!-- BrowserModule -->
<g id="node7" class="node">
<title>BrowserModule</title>
<polygon fill="#8dd3c7" stroke="#000000" points="2400.4734,-122 2397.4734,-126 2376.4734,-126 2373.4734,-122 2293.5266,-122 2293.5266,-86 2400.4734,-86 2400.4734,-122"/>
<text text-anchor="middle" x="2347" y="-99.8" font-family="Times,serif" font-size="14.00" fill="#000000">BrowserModule</text>
</g>
<!-- BrowserModule&#45;&gt;AppModule -->
<g id="edge6" class="edge">
<title>BrowserModule&#45;&gt;AppModule</title>
<path fill="none" stroke="#000000" d="M2347,-122.1686C2347,-141.0898 2347,-168 2347,-168 2347,-168 1705.7896,-168 1705.7896,-168"/>
<polygon fill="#000000" stroke="#000000" points="1705.7897,-164.5001 1695.7896,-168 1705.7896,-171.5001 1705.7897,-164.5001"/>
</g>
<!-- BrowserAnimationsModule -->
<g id="node8" class="node">
<title>BrowserAnimationsModule</title>
<polygon fill="#8dd3c7" stroke="#000000" points="2275.3019,-122 2272.3019,-126 2251.3019,-126 2248.3019,-122 2102.6981,-122 2102.6981,-86 2275.3019,-86 2275.3019,-122"/>
<text text-anchor="middle" x="2189" y="-99.8" font-family="Times,serif" font-size="14.00" fill="#000000">BrowserAnimationsModule</text>
</g>
<!-- BrowserAnimationsModule&#45;&gt;AppModule -->
<g id="edge7" class="edge">
<title>BrowserAnimationsModule&#45;&gt;AppModule</title>
<path fill="none" stroke="#000000" d="M2189,-122.302C2189,-140.2699 2189,-165 2189,-165 2189,-165 1705.9806,-165 1705.9806,-165"/>
<polygon fill="#000000" stroke="#000000" points="1705.9806,-161.5001 1695.9806,-165 1705.9805,-168.5001 1705.9806,-161.5001"/>
</g>
<!-- FormsModule -->
<g id="node9" class="node">
<title>FormsModule</title>
<polygon fill="#8dd3c7" stroke="#000000" points="2084.8288,-122 2081.8288,-126 2060.8288,-126 2057.8288,-122 1989.1712,-122 1989.1712,-86 2084.8288,-86 2084.8288,-122"/>
<text text-anchor="middle" x="2037" y="-99.8" font-family="Times,serif" font-size="14.00" fill="#000000">FormsModule</text>
</g>
<!-- FormsModule&#45;&gt;AppModule -->
<g id="edge8" class="edge">
<title>FormsModule&#45;&gt;AppModule</title>
<path fill="none" stroke="#000000" d="M2037,-122.0352C2037,-138.7344 2037,-161 2037,-161 2037,-161 1705.7168,-161 1705.7168,-161"/>
<polygon fill="#000000" stroke="#000000" points="1705.7168,-157.5001 1695.7168,-161 1705.7168,-164.5001 1705.7168,-157.5001"/>
</g>
<!-- HttpClientModule -->
<g id="node10" class="node">
<title>HttpClientModule</title>
<polygon fill="#8dd3c7" stroke="#000000" points="1971.1611,-122 1968.1611,-126 1947.1611,-126 1944.1611,-122 1852.8389,-122 1852.8389,-86 1971.1611,-86 1971.1611,-122"/>
<text text-anchor="middle" x="1912" y="-99.8" font-family="Times,serif" font-size="14.00" fill="#000000">HttpClientModule</text>
</g>
<!-- HttpClientModule&#45;&gt;AppModule -->
<g id="edge9" class="edge">
<title>HttpClientModule&#45;&gt;AppModule</title>
<path fill="none" stroke="#000000" d="M1912,-122.2819C1912,-137.9478 1912,-158 1912,-158 1912,-158 1705.7389,-158 1705.7389,-158"/>
<polygon fill="#000000" stroke="#000000" points="1705.7389,-154.5001 1695.7389,-158 1705.7389,-161.5001 1705.7389,-154.5001"/>
</g>
<!-- HttpModule -->
<g id="node11" class="node">
<title>HttpModule</title>
<polygon fill="#8dd3c7" stroke="#000000" points="1834.4387,-122 1831.4387,-126 1810.4387,-126 1807.4387,-122 1749.5613,-122 1749.5613,-86 1834.4387,-86 1834.4387,-122"/>
<text text-anchor="middle" x="1792" y="-99.8" font-family="Times,serif" font-size="14.00" fill="#000000">HttpModule</text>
</g>
<!-- HttpModule&#45;&gt;AppModule -->
<g id="edge10" class="edge">
<title>HttpModule&#45;&gt;AppModule</title>
<path fill="none" stroke="#000000" d="M1763.1253,-122.1243C1763.1253,-136.7832 1763.1253,-155 1763.1253,-155 1763.1253,-155 1705.8786,-155 1705.8786,-155"/>
<polygon fill="#000000" stroke="#000000" points="1705.8787,-151.5001 1695.8786,-155 1705.8786,-158.5001 1705.8787,-151.5001"/>
</g>
<!-- NoopAnimationsModule -->
<g id="node12" class="node">
<title>NoopAnimationsModule</title>
<polygon fill="#8dd3c7" stroke="#000000" points="1731.9846,-122 1728.9846,-126 1707.9846,-126 1704.9846,-122 1576.0154,-122 1576.0154,-86 1731.9846,-86 1731.9846,-122"/>
<text text-anchor="middle" x="1654" y="-99.8" font-family="Times,serif" font-size="14.00" fill="#000000">NoopAnimationsModule</text>
</g>
<!-- NoopAnimationsModule&#45;&gt;AppModule -->
<g id="edge11" class="edge">
<title>NoopAnimationsModule&#45;&gt;AppModule</title>
<path fill="none" stroke="#000000" d="M1654,-122.1061C1654,-122.1061 1654,-140.991 1654,-140.991"/>
<polygon fill="#000000" stroke="#000000" points="1650.5001,-140.9909 1654,-150.991 1657.5001,-140.991 1650.5001,-140.9909"/>
</g>
<!-- AppRoutingModule -->
<g id="node13" class="node">
<title>AppRoutingModule</title>
<polygon fill="#8dd3c7" stroke="#000000" points="1558.2744,-122 1555.2744,-126 1534.2744,-126 1531.2744,-122 1429.7256,-122 1429.7256,-86 1558.2744,-86 1558.2744,-122"/>
<text text-anchor="middle" x="1494" y="-99.8" font-family="Times,serif" font-size="14.00" fill="#000000">AppRoutingModule</text>
</g>
<!-- AppRoutingModule&#45;&gt;AppModule -->
<g id="edge12" class="edge">
<title>AppRoutingModule&#45;&gt;AppModule</title>
<path fill="none" stroke="#000000" d="M1543.4104,-122.1243C1543.4104,-136.7832 1543.4104,-155 1543.4104,-155 1543.4104,-155 1602.1908,-155 1602.1908,-155"/>
<polygon fill="#000000" stroke="#000000" points="1602.1908,-158.5001 1612.1908,-155 1602.1908,-151.5001 1602.1908,-158.5001"/>
</g>
<!-- MaterialModule -->
<g id="node14" class="node">
<title>MaterialModule</title>
<polygon fill="#8dd3c7" stroke="#000000" points="1411.4706,-122 1408.4706,-126 1387.4706,-126 1384.4706,-122 1304.5294,-122 1304.5294,-86 1411.4706,-86 1411.4706,-122"/>
<text text-anchor="middle" x="1358" y="-99.8" font-family="Times,serif" font-size="14.00" fill="#000000">MaterialModule</text>
</g>
<!-- MaterialModule&#45;&gt;AppModule -->
<g id="edge13" class="edge">
<title>MaterialModule&#45;&gt;AppModule</title>
<path fill="none" stroke="#000000" d="M1358,-122.2819C1358,-137.9478 1358,-158 1358,-158 1358,-158 1602.2182,-158 1602.2182,-158"/>
<polygon fill="#000000" stroke="#000000" points="1602.2183,-161.5001 1612.2182,-158 1602.2182,-154.5001 1602.2183,-161.5001"/>
</g>
<!-- ToastyModule.forRoot() -->
<g id="node15" class="node">
<title>ToastyModule.forRoot()</title>
<polygon fill="#8dd3c7" stroke="#000000" points="1287.0218,-122 1284.0218,-126 1263.0218,-126 1260.0218,-122 1132.9782,-122 1132.9782,-86 1287.0218,-86 1287.0218,-122"/>
<text text-anchor="middle" x="1210" y="-99.8" font-family="Times,serif" font-size="14.00" fill="#000000">ToastyModule.forRoot()</text>
</g>
<!-- ToastyModule.forRoot()&#45;&gt;AppModule -->
<g id="edge14" class="edge">
<title>ToastyModule.forRoot()&#45;&gt;AppModule</title>
<path fill="none" stroke="#000000" d="M1210,-122.0352C1210,-138.7344 1210,-161 1210,-161 1210,-161 1602.2296,-161 1602.2296,-161"/>
<polygon fill="#000000" stroke="#000000" points="1602.2296,-164.5001 1612.2296,-161 1602.2295,-157.5001 1602.2296,-164.5001"/>
</g>
<!-- TranslateModule.forRoot(args) -->
<g id="node16" class="node">
<title>TranslateModule.forRoot(args)</title>
<polygon fill="#8dd3c7" stroke="#000000" points="1114.8223,-122 1111.8223,-126 1090.8223,-126 1087.8223,-122 923.1777,-122 923.1777,-86 1114.8223,-86 1114.8223,-122"/>
<text text-anchor="middle" x="1019" y="-99.8" font-family="Times,serif" font-size="14.00" fill="#000000">TranslateModule.forRoot(args)</text>
</g>
<!-- TranslateModule.forRoot(args)&#45;&gt;AppModule -->
<g id="edge15" class="edge">
<title>TranslateModule.forRoot(args)&#45;&gt;AppModule</title>
<path fill="none" stroke="#000000" d="M1019,-122.302C1019,-140.2699 1019,-165 1019,-165 1019,-165 1602.3359,-165 1602.3359,-165"/>
<polygon fill="#000000" stroke="#000000" points="1602.3359,-168.5001 1612.3359,-165 1602.3358,-161.5001 1602.3359,-168.5001"/>
</g>
<!-- ConnexionService -->
<g id="node19" class="node">
<title>ConnexionService</title>
<ellipse fill="#fdb462" stroke="#000000" cx="817" cy="-104" rx="82.2468" ry="18"/>
<text text-anchor="middle" x="817" y="-99.8" font-family="Times,serif" font-size="14.00" fill="#000000">ConnexionService</text>
</g>
<!-- ConnexionService&#45;&gt;AppModule -->
<g id="edge18" class="edge">
<title>ConnexionService&#45;&gt;AppModule</title>
<path fill="none" stroke="#000000" d="M817,-122.1686C817,-141.0898 817,-168 817,-168 817,-168 1602.2067,-168 1602.2067,-168"/>
<polygon fill="#000000" stroke="#000000" points="1602.2067,-171.5001 1612.2067,-168 1602.2066,-164.5001 1602.2067,-171.5001"/>
</g>
<!-- LoginService -->
<g id="node20" class="node">
<title>LoginService</title>
<ellipse fill="#fdb462" stroke="#000000" cx="654" cy="-104" rx="63.1209" ry="18"/>
<text text-anchor="middle" x="654" y="-99.8" font-family="Times,serif" font-size="14.00" fill="#000000">LoginService</text>
</g>
<!-- LoginService&#45;&gt;AppModule -->
<g id="edge19" class="edge">
<title>LoginService&#45;&gt;AppModule</title>
<path fill="none" stroke="#000000" d="M654,-122.308C654,-142.1455 654,-171 654,-171 654,-171 1602.3044,-171 1602.3044,-171"/>
<polygon fill="#000000" stroke="#000000" points="1602.3044,-174.5001 1612.3044,-171 1602.3044,-167.5001 1602.3044,-174.5001"/>
</g>
<!-- UserService -->
<g id="node21" class="node">
<title>UserService</title>
<ellipse fill="#fdb462" stroke="#000000" cx="515" cy="-104" rx="58.4415" ry="18"/>
<text text-anchor="middle" x="515" y="-99.8" font-family="Times,serif" font-size="14.00" fill="#000000">UserService</text>
</g>
<!-- UserService&#45;&gt;AppModule -->
<g id="edge20" class="edge">
<title>UserService&#45;&gt;AppModule</title>
<path fill="none" stroke="#000000" d="M515,-122.0267C515,-142.7672 515,-174 515,-174 515,-174 1602.1116,-174 1602.1116,-174"/>
<polygon fill="#000000" stroke="#000000" points="1602.1116,-177.5001 1612.1116,-174 1602.1115,-170.5001 1602.1116,-177.5001"/>
</g>
<!-- AccueilService -->
<g id="node22" class="node">
<title>AccueilService</title>
<ellipse fill="#fdb462" stroke="#000000" cx="369" cy="-104" rx="70.0384" ry="18"/>
<text text-anchor="middle" x="369" y="-99.8" font-family="Times,serif" font-size="14.00" fill="#000000">AccueilService</text>
</g>
<!-- AccueilService&#45;&gt;AppModule -->
<g id="edge21" class="edge">
<title>AccueilService&#45;&gt;AppModule</title>
<path fill="none" stroke="#000000" d="M369,-122.2921C369,-144.2057 369,-178 369,-178 369,-178 1602.3394,-178 1602.3394,-178"/>
<polygon fill="#000000" stroke="#000000" points="1602.3395,-181.5001 1612.3394,-178 1602.3394,-174.5001 1602.3395,-181.5001"/>
</g>
<!-- ContractService -->
<g id="node23" class="node">
<title>ContractService</title>
<ellipse fill="#fdb462" stroke="#000000" cx="208" cy="-104" rx="73.49" ry="18"/>
<text text-anchor="middle" x="208" y="-99.8" font-family="Times,serif" font-size="14.00" fill="#000000">ContractService</text>
</g>
<!-- ContractService&#45;&gt;AppModule -->
<g id="edge22" class="edge">
<title>ContractService&#45;&gt;AppModule</title>
<path fill="none" stroke="#000000" d="M208,-122.2479C208,-145.0179 208,-181 208,-181 208,-181 1602.2835,-181 1602.2835,-181"/>
<polygon fill="#000000" stroke="#000000" points="1602.2835,-184.5001 1612.2835,-181 1602.2834,-177.5001 1602.2835,-184.5001"/>
</g>
<!-- DatePipe -->
<g id="node24" class="node">
<title>DatePipe</title>
<ellipse fill="#fdb462" stroke="#000000" cx="70" cy="-104" rx="46.3643" ry="18"/>
<text text-anchor="middle" x="70" y="-99.8" font-family="Times,serif" font-size="14.00" fill="#000000">DatePipe</text>
</g>
<!-- DatePipe&#45;&gt;AppModule -->
<g id="edge23" class="edge">
<title>DatePipe&#45;&gt;AppModule</title>
<path fill="none" stroke="#000000" d="M70,-122.1532C70,-145.7566 70,-184 70,-184 70,-184 1602.0398,-184 1602.0398,-184"/>
<polygon fill="#000000" stroke="#000000" points="1602.0399,-187.5001 1612.0398,-184 1602.0398,-180.5001 1602.0399,-187.5001"/>
</g>
</g>
</svg>
