<?xml version="1.0" encoding="UTF-8" standalone="no"?>
<!DOCTYPE svg PUBLIC "-//W3C//DTD SVG 1.1//EN"
 "http://www.w3.org/Graphics/SVG/1.1/DTD/svg11.dtd">
<!-- Generated by graphviz version 2.40.1 (20161225.0304)
 -->
<!-- Title: dependencies Pages: 1 -->
<svg width="3449pt" height="290pt"
 viewBox="0.00 0.00 3449.00 290.00" xmlns="http://www.w3.org/2000/svg" xmlns:xlink="http://www.w3.org/1999/xlink">
<g id="graph0" class="graph" transform="scale(1 1) rotate(0) translate(4 286)">
<title>dependencies</title>
<polygon fill="#ffffff" stroke="transparent" points="-4,4 -4,-286 3445,-286 3445,4 -4,4"/>
<text text-anchor="start" x="1699.5091" y="-42.4" font-family="sans-serif" font-weight="bold" font-size="14.00" fill="#000000">Legend</text>
<polygon fill="#ffffb3" stroke="transparent" points="1486.5,-10 1486.5,-30 1506.5,-30 1506.5,-10 1486.5,-10"/>
<text text-anchor="start" x="1510.129" y="-15.4" font-family="sans-serif" font-size="14.00" fill="#000000"> &#160;Declarations</text>
<polygon fill="#8dd3c7" stroke="transparent" points="1599.5,-10 1599.5,-30 1619.5,-30 1619.5,-10 1599.5,-10"/>
<text text-anchor="start" x="1623.2251" y="-15.4" font-family="sans-serif" font-size="14.00" fill="#000000"> &#160;Module</text>
<polygon fill="#80b1d3" stroke="transparent" points="1685.5,-10 1685.5,-30 1705.5,-30 1705.5,-10 1685.5,-10"/>
<text text-anchor="start" x="1709.2812" y="-15.4" font-family="sans-serif" font-size="14.00" fill="#000000"> &#160;Bootstrap</text>
<polygon fill="#fdb462" stroke="transparent" points="1782.5,-10 1782.5,-30 1802.5,-30 1802.5,-10 1782.5,-10"/>
<text text-anchor="start" x="1806.1732" y="-15.4" font-family="sans-serif" font-size="14.00" fill="#000000"> &#160;Providers</text>
<polygon fill="#fb8072" stroke="transparent" points="1878.5,-10 1878.5,-30 1898.5,-30 1898.5,-10 1878.5,-10"/>
<text text-anchor="start" x="1902.2258" y="-15.4" font-family="sans-serif" font-size="14.00" fill="#000000"> &#160;Exports</text>
<g id="clust1" class="cluster">
<title>cluster_AppModule</title>
<polygon fill="none" stroke="#000000" stroke-dasharray="1,5" points="8,-70 8,-274 3089,-274 3089,-70 8,-70"/>
</g>
<g id="clust2" class="cluster">
<title>cluster_AppModule_declarations</title>
<polygon fill="none" stroke="#000000" points="915,-78 915,-130 1580,-130 1580,-78 915,-78"/>
</g>
<g id="clust8" class="cluster">
<title>cluster_AppModule_imports</title>
<polygon fill="none" stroke="#000000" points="1588,-78 1588,-130 3081,-130 3081,-78 1588,-78"/>
</g>
<g id="clust9" class="cluster">
<title>cluster_AppModule_exports</title>
<polygon fill="none" stroke="#000000" points="1385,-214 1385,-266 1517,-266 1517,-214 1385,-214"/>
</g>
<g id="clust10" class="cluster">
<title>cluster_AppModule_bootstrap</title>
<polygon fill="none" stroke="#000000" points="1525,-214 1525,-266 1649,-266 1649,-214 1525,-214"/>
</g>
<g id="clust11" class="cluster">
<title>cluster_AppModule_providers</title>
<polygon fill="none" stroke="#000000" points="16,-78 16,-130 907,-130 907,-78 16,-78"/>
</g>
<g id="clust12" class="cluster">
<title>cluster_AppRoutingModule</title>
<polygon fill="none" stroke="#000000" stroke-dasharray="1,5" points="3097,-138 3097,-206 3433,-206 3433,-138 3097,-138"/>
</g>
<g id="clust14" class="cluster">
<title>cluster_AppRoutingModule_imports</title>
<polygon fill="none" stroke="#000000" points="3231,-146 3231,-198 3425,-198 3425,-146 3231,-146"/>
</g>
<g id="clust15" class="cluster">
<title>cluster_AppRoutingModule_exports</title>
<polygon fill="none" stroke="#000000" points="3105,-146 3105,-198 3223,-198 3223,-146 3105,-146"/>
</g>
<!-- AppComponent -->
<g id="node1" class="node">
<title>AppComponent</title>
<polygon fill="#ffffb3" stroke="#000000" points="1571.9399,-122 1466.0601,-122 1466.0601,-86 1571.9399,-86 1571.9399,-122"/>
<text text-anchor="middle" x="1519" y="-99.8" font-family="Times,serif" font-size="14.00" fill="#000000">AppComponent</text>
</g>
<!-- AppModule -->
<g id="node6" class="node">
<title>AppModule</title>
<polygon fill="#8dd3c7" stroke="#000000" points="1560.6571,-190 1557.6571,-194 1536.6571,-194 1533.6571,-190 1477.3429,-190 1477.3429,-154 1560.6571,-154 1560.6571,-190"/>
<text text-anchor="middle" x="1519" y="-167.8" font-family="Times,serif" font-size="14.00" fill="#000000">AppModule</text>
</g>
<!-- AppComponent&#45;&gt;AppModule -->
<g id="edge1" class="edge">
<title>AppComponent&#45;&gt;AppModule</title>
<path fill="none" stroke="#000000" d="M1519,-122.2228C1519,-122.2228 1519,-143.7269 1519,-143.7269"/>
<polygon fill="#000000" stroke="#000000" points="1515.5001,-143.7269 1519,-153.7269 1522.5001,-143.727 1515.5001,-143.7269"/>
</g>
<!-- LoginComponent -->
<g id="node2" class="node">
<title>LoginComponent</title>
<polygon fill="#ffffb3" stroke="#000000" points="1448.2758,-122 1333.7242,-122 1333.7242,-86 1448.2758,-86 1448.2758,-122"/>
<text text-anchor="middle" x="1391" y="-99.8" font-family="Times,serif" font-size="14.00" fill="#000000">LoginComponent</text>
</g>
<!-- LoginComponent&#45;&gt;AppModule -->
<g id="edge2" class="edge">
<title>LoginComponent&#45;&gt;AppModule</title>
<path fill="none" stroke="#000000" d="M1420.9108,-122.2819C1420.9108,-137.9478 1420.9108,-158 1420.9108,-158 1420.9108,-158 1467.1168,-158 1467.1168,-158"/>
<polygon fill="#000000" stroke="#000000" points="1467.1168,-161.5001 1477.1168,-158 1467.1168,-154.5001 1467.1168,-161.5001"/>
</g>
<!-- AccueilComponent -->
<g id="node3" class="node">
<title>AccueilComponent</title>
<polygon fill="#ffffb3" stroke="#000000" points="1315.3641,-122 1190.6359,-122 1190.6359,-86 1315.3641,-86 1315.3641,-122"/>
<text text-anchor="middle" x="1253" y="-99.8" font-family="Times,serif" font-size="14.00" fill="#000000">AccueilComponent</text>
</g>
<!-- AccueilComponent&#45;&gt;AppModule -->
<g id="edge3" class="edge">
<title>AccueilComponent&#45;&gt;AppModule</title>
<path fill="none" stroke="#000000" d="M1253,-122.0352C1253,-138.7344 1253,-161 1253,-161 1253,-161 1467.1449,-161 1467.1449,-161"/>
<polygon fill="#000000" stroke="#000000" points="1467.1449,-164.5001 1477.1449,-161 1467.1448,-157.5001 1467.1449,-164.5001"/>
</g>
<!-- FooterComponent -->
<g id="node4" class="node">
<title>FooterComponent</title>
<polygon fill="#ffffb3" stroke="#000000" points="1172.8809,-122 1055.1191,-122 1055.1191,-86 1172.8809,-86 1172.8809,-122"/>
<text text-anchor="middle" x="1114" y="-99.8" font-family="Times,serif" font-size="14.00" fill="#000000">FooterComponent</text>
</g>
<!-- FooterComponent&#45;&gt;AppModule -->
<g id="edge4" class="edge">
<title>FooterComponent&#45;&gt;AppModule</title>
<path fill="none" stroke="#000000" d="M1114,-122.002C1114,-139.6754 1114,-164 1114,-164 1114,-164 1467.1833,-164 1467.1833,-164"/>
<polygon fill="#000000" stroke="#000000" points="1467.1833,-167.5001 1477.1833,-164 1467.1833,-160.5001 1467.1833,-167.5001"/>
</g>
<!-- MenuComponent -->
<g id="node5" class="node">
<title>MenuComponent</title>
<polygon fill="#ffffb3" stroke="#000000" points="1036.9916,-122 923.0084,-122 923.0084,-86 1036.9916,-86 1036.9916,-122"/>
<text text-anchor="middle" x="980" y="-99.8" font-family="Times,serif" font-size="14.00" fill="#000000">MenuComponent</text>
</g>
<!-- MenuComponent&#45;&gt;AppModule -->
<g id="edge5" class="edge">
<title>MenuComponent&#45;&gt;AppModule</title>
<path fill="none" stroke="#000000" d="M980,-122.1686C980,-141.0898 980,-168 980,-168 980,-168 1467.1541,-168 1467.1541,-168"/>
<polygon fill="#000000" stroke="#000000" points="1467.1541,-171.5001 1477.1541,-168 1467.154,-164.5001 1467.1541,-171.5001"/>
</g>
<!-- TranslateModule  -->
<g id="node17" class="node">
<title>TranslateModule </title>
<polygon fill="#fb8072" stroke="#000000" points="1508.6327,-258 1393.3673,-258 1393.3673,-222 1508.6327,-222 1508.6327,-258"/>
<text text-anchor="middle" x="1451" y="-235.8" font-family="Times,serif" font-size="14.00" fill="#000000">TranslateModule </text>
</g>
<!-- AppModule&#45;&gt;TranslateModule  -->
<g id="edge16" class="edge">
<title>AppModule&#45;&gt;TranslateModule </title>
<path fill="none" stroke="#000000" stroke-dasharray="5,2" d="M1492.8691,-190.2228C1492.8691,-190.2228 1492.8691,-211.7269 1492.8691,-211.7269"/>
<polygon fill="#000000" stroke="#000000" points="1489.3691,-211.7269 1492.8691,-221.7269 1496.3691,-211.727 1489.3691,-211.7269"/>
</g>
<!-- AppComponent  -->
<g id="node18" class="node">
<title>AppComponent </title>
<polygon fill="#80b1d3" stroke="#000000" points="1641.439,-258 1532.561,-258 1532.561,-222 1641.439,-222 1641.439,-258"/>
<text text-anchor="middle" x="1587" y="-235.8" font-family="Times,serif" font-size="14.00" fill="#000000">AppComponent </text>
</g>
<!-- AppModule&#45;&gt;AppComponent  -->
<g id="edge17" class="edge">
<title>AppModule&#45;&gt;AppComponent </title>
<path fill="none" stroke="#000000" stroke-dasharray="1,5" d="M1546.6793,-190.2228C1546.6793,-190.2228 1546.6793,-211.7269 1546.6793,-211.7269"/>
<polygon fill="#000000" stroke="#000000" points="1543.1794,-211.7269 1546.6793,-221.7269 1550.1794,-211.727 1543.1794,-211.7269"/>
</g>
<!-- BrowserModule -->
<g id="node7" class="node">
<title>BrowserModule</title>
<polygon fill="#8dd3c7" stroke="#000000" points="2926.4734,-122 2923.4734,-126 2902.4734,-126 2899.4734,-122 2819.5266,-122 2819.5266,-86 2926.4734,-86 2926.4734,-122"/>
<text text-anchor="middle" x="2873" y="-99.8" font-family="Times,serif" font-size="14.00" fill="#000000">BrowserModule</text>
</g>
<!-- BrowserModule&#45;&gt;AppModule -->
<g id="edge6" class="edge">
<title>BrowserModule&#45;&gt;AppModule</title>
<path fill="none" stroke="#000000" d="M2873,-122.1532C2873,-145.7566 2873,-184 2873,-184 2873,-184 1571.0073,-184 1571.0073,-184"/>
<polygon fill="#000000" stroke="#000000" points="1571.0073,-180.5001 1561.0073,-184 1571.0072,-187.5001 1571.0073,-180.5001"/>
</g>
<!-- BrowserAnimationsModule -->
<g id="node8" class="node">
<title>BrowserAnimationsModule</title>
<polygon fill="#8dd3c7" stroke="#000000" points="2801.3019,-122 2798.3019,-126 2777.3019,-126 2774.3019,-122 2628.6981,-122 2628.6981,-86 2801.3019,-86 2801.3019,-122"/>
<text text-anchor="middle" x="2715" y="-99.8" font-family="Times,serif" font-size="14.00" fill="#000000">BrowserAnimationsModule</text>
</g>
<!-- BrowserAnimationsModule&#45;&gt;AppModule -->
<g id="edge7" class="edge">
<title>BrowserAnimationsModule&#45;&gt;AppModule</title>
<path fill="none" stroke="#000000" d="M2715,-122.2479C2715,-145.0179 2715,-181 2715,-181 2715,-181 1570.865,-181 1570.865,-181"/>
<polygon fill="#000000" stroke="#000000" points="1570.865,-177.5001 1560.865,-181 1570.865,-184.5001 1570.865,-177.5001"/>
</g>
<!-- FormsModule -->
<g id="node9" class="node">
<title>FormsModule</title>
<polygon fill="#8dd3c7" stroke="#000000" points="2610.8288,-122 2607.8288,-126 2586.8288,-126 2583.8288,-122 2515.1712,-122 2515.1712,-86 2610.8288,-86 2610.8288,-122"/>
<text text-anchor="middle" x="2563" y="-99.8" font-family="Times,serif" font-size="14.00" fill="#000000">FormsModule</text>
</g>
<!-- FormsModule&#45;&gt;AppModule -->
<g id="edge8" class="edge">
<title>FormsModule&#45;&gt;AppModule</title>
<path fill="none" stroke="#000000" d="M2563,-122.0449C2563,-143.6623 2563,-177 2563,-177 2563,-177 1570.8941,-177 1570.8941,-177"/>
<polygon fill="#000000" stroke="#000000" points="1570.8941,-173.5001 1560.8941,-177 1570.8941,-180.5001 1570.8941,-173.5001"/>
</g>
<!-- HttpClientModule -->
<g id="node10" class="node">
<title>HttpClientModule</title>
<polygon fill="#8dd3c7" stroke="#000000" points="2497.1611,-122 2494.1611,-126 2473.1611,-126 2470.1611,-122 2378.8389,-122 2378.8389,-86 2497.1611,-86 2497.1611,-122"/>
<text text-anchor="middle" x="2438" y="-99.8" font-family="Times,serif" font-size="14.00" fill="#000000">HttpClientModule</text>
</g>
<!-- HttpClientModule&#45;&gt;AppModule -->
<g id="edge9" class="edge">
<title>HttpClientModule&#45;&gt;AppModule</title>
<path fill="none" stroke="#000000" d="M2438,-122.0267C2438,-142.7672 2438,-174 2438,-174 2438,-174 1570.8756,-174 1570.8756,-174"/>
<polygon fill="#000000" stroke="#000000" points="1570.8756,-170.5001 1560.8756,-174 1570.8755,-177.5001 1570.8756,-170.5001"/>
</g>
<!-- HttpModule -->
<g id="node11" class="node">
<title>HttpModule</title>
<polygon fill="#8dd3c7" stroke="#000000" points="2360.4387,-122 2357.4387,-126 2336.4387,-126 2333.4387,-122 2275.5613,-122 2275.5613,-86 2360.4387,-86 2360.4387,-122"/>
<text text-anchor="middle" x="2318" y="-99.8" font-family="Times,serif" font-size="14.00" fill="#000000">HttpModule</text>
</g>
<!-- HttpModule&#45;&gt;AppModule -->
<g id="edge10" class="edge">
<title>HttpModule&#45;&gt;AppModule</title>
<path fill="none" stroke="#000000" d="M2318,-122.308C2318,-142.1455 2318,-171 2318,-171 2318,-171 1570.8327,-171 1570.8327,-171"/>
<polygon fill="#000000" stroke="#000000" points="1570.8328,-167.5001 1560.8327,-171 1570.8327,-174.5001 1570.8328,-167.5001"/>
</g>
<!-- NoopAnimationsModule -->
<g id="node12" class="node">
<title>NoopAnimationsModule</title>
<polygon fill="#8dd3c7" stroke="#000000" points="2257.9846,-122 2254.9846,-126 2233.9846,-126 2230.9846,-122 2102.0154,-122 2102.0154,-86 2257.9846,-86 2257.9846,-122"/>
<text text-anchor="middle" x="2180" y="-99.8" font-family="Times,serif" font-size="14.00" fill="#000000">NoopAnimationsModule</text>
</g>
<!-- NoopAnimationsModule&#45;&gt;AppModule -->
<g id="edge11" class="edge">
<title>NoopAnimationsModule&#45;&gt;AppModule</title>
<path fill="none" stroke="#000000" d="M2180,-122.1686C2180,-141.0898 2180,-168 2180,-168 2180,-168 1570.85,-168 1570.85,-168"/>
<polygon fill="#000000" stroke="#000000" points="1570.85,-164.5001 1560.85,-168 1570.8499,-171.5001 1570.85,-164.5001"/>
</g>
<!-- AppRoutingModule -->
<g id="node13" class="node">
<title>AppRoutingModule</title>
<polygon fill="#8dd3c7" stroke="#000000" points="3073.2744,-122 3070.2744,-126 3049.2744,-126 3046.2744,-122 2944.7256,-122 2944.7256,-86 3073.2744,-86 3073.2744,-122"/>
<text text-anchor="middle" x="3009" y="-99.8" font-family="Times,serif" font-size="14.00" fill="#000000">AppRoutingModule</text>
</g>
<!-- AppRoutingModule&#45;&gt;AppModule -->
<g id="edge12" class="edge">
<title>AppRoutingModule&#45;&gt;AppModule</title>
<path fill="none" stroke="#000000" d="M3009,-122.0098C3009,-146.4207 3009,-187 3009,-187 3009,-187 1570.7986,-187 1570.7986,-187"/>
<polygon fill="#000000" stroke="#000000" points="1570.7986,-183.5001 1560.7986,-187 1570.7986,-190.5001 1570.7986,-183.5001"/>
</g>
<!-- RouterModule  -->
<g id="node26" class="node">
<title>RouterModule </title>
<polygon fill="#fb8072" stroke="#000000" points="3214.6523,-190 3113.3477,-190 3113.3477,-154 3214.6523,-154 3214.6523,-190"/>
<text text-anchor="middle" x="3164" y="-167.8" font-family="Times,serif" font-size="14.00" fill="#000000">RouterModule </text>
</g>
<!-- AppRoutingModule&#45;&gt;RouterModule  -->
<g id="edge25" class="edge">
<title>AppRoutingModule&#45;&gt;RouterModule </title>
<path fill="none" stroke="#000000" stroke-dasharray="5,2" d="M3073.3874,-110C3115.9734,-110 3164,-110 3164,-110 3164,-110 3164,-143.7333 3164,-143.7333"/>
<polygon fill="#000000" stroke="#000000" points="3160.5001,-143.7333 3164,-153.7333 3167.5001,-143.7333 3160.5001,-143.7333"/>
</g>
<!-- MaterialModule -->
<g id="node14" class="node">
<title>MaterialModule</title>
<polygon fill="#8dd3c7" stroke="#000000" points="1874.4706,-122 1871.4706,-126 1850.4706,-126 1847.4706,-122 1767.5294,-122 1767.5294,-86 1874.4706,-86 1874.4706,-122"/>
<text text-anchor="middle" x="1821" y="-99.8" font-family="Times,serif" font-size="14.00" fill="#000000">MaterialModule</text>
</g>
<!-- MaterialModule&#45;&gt;AppModule -->
<g id="edge13" class="edge">
<title>MaterialModule&#45;&gt;AppModule</title>
<path fill="none" stroke="#000000" d="M1821,-122.0352C1821,-138.7344 1821,-161 1821,-161 1821,-161 1570.6747,-161 1570.6747,-161"/>
<polygon fill="#000000" stroke="#000000" points="1570.6748,-157.5001 1560.6747,-161 1570.6747,-164.5001 1570.6748,-157.5001"/>
</g>
<!-- ToastyModule.forRoot() -->
<g id="node15" class="node">
<title>ToastyModule.forRoot()</title>
<polygon fill="#8dd3c7" stroke="#000000" points="1750.0218,-122 1747.0218,-126 1726.0218,-126 1723.0218,-122 1595.9782,-122 1595.9782,-86 1750.0218,-86 1750.0218,-122"/>
<text text-anchor="middle" x="1673" y="-99.8" font-family="Times,serif" font-size="14.00" fill="#000000">ToastyModule.forRoot()</text>
</g>
<!-- ToastyModule.forRoot()&#45;&gt;AppModule -->
<g id="edge14" class="edge">
<title>ToastyModule.forRoot()&#45;&gt;AppModule</title>
<path fill="none" stroke="#000000" d="M1618.7293,-122.2819C1618.7293,-137.9478 1618.7293,-158 1618.7293,-158 1618.7293,-158 1570.7164,-158 1570.7164,-158"/>
<polygon fill="#000000" stroke="#000000" points="1570.7164,-154.5001 1560.7164,-158 1570.7163,-161.5001 1570.7164,-154.5001"/>
</g>
<!-- TranslateModule.forRoot(args) -->
<g id="node16" class="node">
<title>TranslateModule.forRoot(args)</title>
<polygon fill="#8dd3c7" stroke="#000000" points="2083.8223,-122 2080.8223,-126 2059.8223,-126 2056.8223,-122 1892.1777,-122 1892.1777,-86 2083.8223,-86 2083.8223,-122"/>
<text text-anchor="middle" x="1988" y="-99.8" font-family="Times,serif" font-size="14.00" fill="#000000">TranslateModule.forRoot(args)</text>
</g>
<!-- TranslateModule.forRoot(args)&#45;&gt;AppModule -->
<g id="edge15" class="edge">
<title>TranslateModule.forRoot(args)&#45;&gt;AppModule</title>
<path fill="none" stroke="#000000" d="M1988,-122.002C1988,-139.6754 1988,-164 1988,-164 1988,-164 1571.0334,-164 1571.0334,-164"/>
<polygon fill="#000000" stroke="#000000" points="1571.0334,-160.5001 1561.0334,-164 1571.0333,-167.5001 1571.0334,-160.5001"/>
</g>
<!-- ConnexionService -->
<g id="node19" class="node">
<title>ConnexionService</title>
<ellipse fill="#fdb462" stroke="#000000" cx="817" cy="-104" rx="82.2468" ry="18"/>
<text text-anchor="middle" x="817" y="-99.8" font-family="Times,serif" font-size="14.00" fill="#000000">ConnexionService</text>
</g>
<!-- ConnexionService&#45;&gt;AppModule -->
<g id="edge18" class="edge">
<title>ConnexionService&#45;&gt;AppModule</title>
<path fill="none" stroke="#000000" d="M817,-122.308C817,-142.1455 817,-171 817,-171 817,-171 1467.189,-171 1467.189,-171"/>
<polygon fill="#000000" stroke="#000000" points="1467.189,-174.5001 1477.189,-171 1467.189,-167.5001 1467.189,-174.5001"/>
</g>
<!-- LoginService -->
<g id="node20" class="node">
<title>LoginService</title>
<ellipse fill="#fdb462" stroke="#000000" cx="654" cy="-104" rx="63.1209" ry="18"/>
<text text-anchor="middle" x="654" y="-99.8" font-family="Times,serif" font-size="14.00" fill="#000000">LoginService</text>
</g>
<!-- LoginService&#45;&gt;AppModule -->
<g id="edge19" class="edge">
<title>LoginService&#45;&gt;AppModule</title>
<path fill="none" stroke="#000000" d="M654,-122.0267C654,-142.7672 654,-174 654,-174 654,-174 1467.2793,-174 1467.2793,-174"/>
<polygon fill="#000000" stroke="#000000" points="1467.2793,-177.5001 1477.2793,-174 1467.2792,-170.5001 1467.2793,-177.5001"/>
</g>
<!-- UserService -->
<g id="node21" class="node">
<title>UserService</title>
<ellipse fill="#fdb462" stroke="#000000" cx="515" cy="-104" rx="58.4415" ry="18"/>
<text text-anchor="middle" x="515" y="-99.8" font-family="Times,serif" font-size="14.00" fill="#000000">UserService</text>
</g>
<!-- UserService&#45;&gt;AppModule -->
<g id="edge20" class="edge">
<title>UserService&#45;&gt;AppModule</title>
<path fill="none" stroke="#000000" d="M515,-122.0449C515,-143.6623 515,-177 515,-177 515,-177 1467.1376,-177 1467.1376,-177"/>
<polygon fill="#000000" stroke="#000000" points="1467.1376,-180.5001 1477.1376,-177 1467.1376,-173.5001 1467.1376,-180.5001"/>
</g>
<!-- AccueilService -->
<g id="node22" class="node">
<title>AccueilService</title>
<ellipse fill="#fdb462" stroke="#000000" cx="369" cy="-104" rx="70.0384" ry="18"/>
<text text-anchor="middle" x="369" y="-99.8" font-family="Times,serif" font-size="14.00" fill="#000000">AccueilService</text>
</g>
<!-- AccueilService&#45;&gt;AppModule -->
<g id="edge21" class="edge">
<title>AccueilService&#45;&gt;AppModule</title>
<path fill="none" stroke="#000000" d="M369,-122.2479C369,-145.0179 369,-181 369,-181 369,-181 1467.0499,-181 1467.0499,-181"/>
<polygon fill="#000000" stroke="#000000" points="1467.0499,-184.5001 1477.0499,-181 1467.0499,-177.5001 1467.0499,-184.5001"/>
</g>
<!-- ContractService -->
<g id="node23" class="node">
<title>ContractService</title>
<ellipse fill="#fdb462" stroke="#000000" cx="208" cy="-104" rx="73.49" ry="18"/>
<text text-anchor="middle" x="208" y="-99.8" font-family="Times,serif" font-size="14.00" fill="#000000">ContractService</text>
</g>
<!-- ContractService&#45;&gt;AppModule -->
<g id="edge22" class="edge">
<title>ContractService&#45;&gt;AppModule</title>
<path fill="none" stroke="#000000" d="M208,-122.1532C208,-145.7566 208,-184 208,-184 208,-184 1467.233,-184 1467.233,-184"/>
<polygon fill="#000000" stroke="#000000" points="1467.2331,-187.5001 1477.233,-184 1467.233,-180.5001 1467.2331,-187.5001"/>
</g>
<!-- DatePipe -->
<g id="node24" class="node">
<title>DatePipe</title>
<ellipse fill="#fdb462" stroke="#000000" cx="70" cy="-104" rx="46.3643" ry="18"/>
<text text-anchor="middle" x="70" y="-99.8" font-family="Times,serif" font-size="14.00" fill="#000000">DatePipe</text>
</g>
<!-- DatePipe&#45;&gt;AppModule -->
<g id="edge23" class="edge">
<title>DatePipe&#45;&gt;AppModule</title>
<path fill="none" stroke="#000000" d="M70,-122.0098C70,-146.4207 70,-187 70,-187 70,-187 1467.1969,-187 1467.1969,-187"/>
<polygon fill="#000000" stroke="#000000" points="1467.197,-190.5001 1477.1969,-187 1467.1969,-183.5001 1467.197,-190.5001"/>
</g>
<!-- RouterModule.forRoot(args) -->
<g id="node25" class="node">
<title>RouterModule.forRoot(args)</title>
<polygon fill="#8dd3c7" stroke="#000000" points="3416.8419,-190 3413.8419,-194 3392.8419,-194 3389.8419,-190 3239.1581,-190 3239.1581,-154 3416.8419,-154 3416.8419,-190"/>
<text text-anchor="middle" x="3328" y="-167.8" font-family="Times,serif" font-size="14.00" fill="#000000">RouterModule.forRoot(args)</text>
</g>
<!-- RouterModule.forRoot(args)&#45;&gt;AppRoutingModule -->
<g id="edge24" class="edge">
<title>RouterModule.forRoot(args)&#45;&gt;AppRoutingModule</title>
<path fill="none" stroke="#000000" d="M3328,-153.7079C3328,-131.7943 3328,-98 3328,-98 3328,-98 3083.5544,-98 3083.5544,-98"/>
<polygon fill="#000000" stroke="#000000" points="3083.5544,-94.5001 3073.5544,-98 3083.5544,-101.5001 3083.5544,-94.5001"/>
</g>
</g>
</svg>
